<?xml version="1.0" encoding="UTF-8"?>
<!-- ATLAZES OS - Release cover / social preview -->
<svg xmlns="http://www.w3.org/2000/svg" viewBox="0 0 1600 900" width="1600" height="900">
  <defs>
    <linearGradient id="bg" x1="0%" y1="0%" x2="100%" y2="100%">
      <stop offset="0%" stop-color="#020617"/>
      <stop offset="55%" stop-color="#07111f"/>
      <stop offset="100%" stop-color="#0f172a"/>
    </linearGradient>
    <radialGradient id="glow" cx="72%" cy="36%" r="60%">
      <stop offset="0%" stop-color="#22d3ee" stop-opacity="0.28"/>
      <stop offset="100%" stop-color="#020617" stop-opacity="0"/>
    </radialGradient>
    <linearGradient id="accent" x1="10%" y1="0%" x2="90%" y2="100%">
      <stop offset="0%" stop-color="#e0f2fe"/>
      <stop offset="48%" stop-color="#22d3ee"/>
      <stop offset="100%" stop-color="#2dd4bf"/>
    </linearGradient>
  </defs>

  <rect width="1600" height="900" fill="url(#bg)"/>
  <rect width="1600" height="900" fill="url(#glow)"/>

  <g transform="translate(1128 414) scale(1.18)" opacity="0.30">
    <path d="M0-186 124-136v93C124 32 76 94 0 130-76 94-124 32-124-43v-93Z"
          fill="#07111f" stroke="url(#accent)" stroke-width="7"/>
    <ellipse cx="0" cy="-6" rx="158" ry="52" fill="none" stroke="url(#accent)" stroke-width="6"
             transform="rotate(-23)"/>
    <path d="M0-112-74 76h40l14-40h40l14 40h40Z" fill="url(#accent)"/>
    <path d="M0-58-12 0h24Z" fill="#07111f"/>
    <path d="M-22 15h44" stroke="#f8fafc" stroke-width="7" stroke-linecap="round"/>
  </g>

  <g transform="translate(120 250)">
    <text x="0" y="0" font-family="Cantarell, Inter, DejaVu Sans, sans-serif"
          font-size="86" font-weight="800" fill="#e0f2fe" letter-spacing="4">ATLAZES OS</text>
    <text x="4" y="74" font-family="Cantarell, Inter, DejaVu Sans, sans-serif"
          font-size="24" font-weight="500" fill="#67e8f9" letter-spacing="6">PRIVATE  SECURE  LIGHTWEIGHT</text>
    <line x1="4" y1="118" x2="560" y2="118" stroke="url(#accent)" stroke-width="3"/>
    <text x="4" y="184" font-family="Cantarell, Inter, DejaVu Sans, sans-serif"
          font-size="28" font-weight="400" fill="#cbd5e1">A polished Debian-compatible live system with its own identity.</text>
  </g>
</svg>
